<svg id="Capa_1" data-name="Capa 1" xmlns="http://www.w3.org/2000/svg" viewBox="0 0 76.07 66.82"><defs><style>.cls-1{fill:#521fde;}</style></defs><path class="cls-1" d="M461.69,414l-29.57-17.07-8.14-4.7a9.92,9.92,0,0,0-14.87,8.58v43.55a9.8,9.8,0,0,0,5,8.59,9.83,9.83,0,0,0,9.91,0l6.52-3.76,9-5.19,22.22-12.83a9.91,9.91,0,0,0,0-17.17Zm-4,10.3L434,438l-3.17,1.82L420,446.06a2,2,0,0,1-3-1.71V400.8a1.93,1.93,0,0,1,1-1.7,1.93,1.93,0,0,1,2,0l11.84,6.83,25.87,14.94a2,2,0,0,1,0,3.42Z" transform="translate(-409.11 -390.87)"/><path class="cls-1" d="M439.47,444,424,452.94a9.83,9.83,0,0,1-9.91,0,9.8,9.8,0,0,1-5-8.59v-33.3l7.94,8.62v24.68a2,2,0,0,0,3,1.71L434,438Z" transform="translate(-409.11 -390.87)"/><path class="cls-1" d="M466.65,422.58a9.8,9.8,0,0,1-5,8.58L439.47,444l-9,5.19.29-9.35L434,438l23.76-13.72a2,2,0,0,0,0-3.42l-25.87-14.94.27-9L461.69,414A9.8,9.8,0,0,1,466.65,422.58Z" transform="translate(-409.11 -390.87)"/><path class="cls-1" d="M472.62,448.28a2.15,2.15,0,1,1,.68-3,2.14,2.14,0,0,1-.68,3" transform="translate(-409.11 -390.87)"/><path class="cls-1" d="M484.17,443.84a2.15,2.15,0,1,1,.69-3,2.15,2.15,0,0,1-.69,3" transform="translate(-409.11 -390.87)"/><path class="cls-1" d="M466.53,457.37a2.15,2.15,0,1,1,.69-3,2.14,2.14,0,0,1-.69,3" transform="translate(-409.11 -390.87)"/><path class="cls-1" d="M456.1,453.52a2.15,2.15,0,1,1,.69-3,2.14,2.14,0,0,1-.69,3" transform="translate(-409.11 -390.87)"/><path class="cls-1" d="M441.71,451.36a2.15,2.15,0,1,1,.69-3,2.15,2.15,0,0,1-.69,3" transform="translate(-409.11 -390.87)"/><path class="cls-1" d="M461.31,431.54l-2.79-4.46a.74.74,0,0,1,.24-1,.74.74,0,0,1,1,.24l2.78,4.46a.74.74,0,0,1-.23,1A.73.73,0,0,1,461.31,431.54Z" transform="translate(-409.11 -390.87)"/><path class="cls-1" d="M470.85,446.85l-8.17-13.11a.74.74,0,0,1,.24-1,.75.75,0,0,1,1,.24l8.17,13.1a.74.74,0,0,1-1.26.79Z" transform="translate(-409.11 -390.87)"/><path class="cls-1" d="M466.68,428.12l-2.75-4.41a.74.74,0,0,1,.23-1,.73.73,0,0,1,1,.24l2.75,4.4a.74.74,0,1,1-1.25.79Z" transform="translate(-409.11 -390.87)"/><path class="cls-1" d="M445.76,441.16l-2.75-4.4a.74.74,0,0,1,1.25-.79l2.75,4.41a.74.74,0,0,1-.23,1A.73.73,0,0,1,445.76,441.16Z" transform="translate(-409.11 -390.87)"/><path class="cls-1" d="M454.47,452.3a.72.72,0,0,1-.09-.2L450.62,438l-2.69-4.31a.74.74,0,0,1,.23-1,.73.73,0,0,1,1,.24l2.75,4.4a.88.88,0,0,1,.09.2l3.79,14.21a.75.75,0,0,1-.52.91A.76.76,0,0,1,454.47,452.3Z" transform="translate(-409.11 -390.87)"/><path class="cls-1" d="M464.77,455.94l-.06-.11-3.95-9.4a.74.74,0,0,1,.4-1,.73.73,0,0,1,1,.4l4,9.4a.74.74,0,0,1-1.31.68Z" transform="translate(-409.11 -390.87)"/><path class="cls-1" d="M459.67,443.81l-.06-.11-3.74-8.91-2.72-4.36a.74.74,0,0,1,.24-1,.75.75,0,0,1,1,.24l2.74,4.41.06.1,3.77,9a.74.74,0,0,1-1.31.68Z" transform="translate(-409.11 -390.87)"/><path class="cls-1" d="M478.33,438.66a.74.74,0,0,1,1.12-.94l4,3.58a.73.73,0,0,1,.06,1,.74.74,0,0,1-1.05.06l-4-3.58A.65.65,0,0,1,478.33,438.66Z" transform="translate(-409.11 -390.87)"/><path class="cls-1" d="M470.14,431.3a.74.74,0,0,1,1.13-.94l6,5.42a.74.74,0,0,1-1,1.11l-6-5.43A.7.7,0,0,1,470.14,431.3Z" transform="translate(-409.11 -390.87)"/><path class="cls-1" d="M466.76,428.26a.76.76,0,0,1,.08-.89.74.74,0,0,1,1.05-.05l1.46,1.32a.73.73,0,0,1,.06,1,.74.74,0,0,1-1.05.06l-1.46-1.32A.7.7,0,0,1,466.76,428.26Z" transform="translate(-409.11 -390.87)"/><path class="cls-1" d="M440,449.93a.74.74,0,0,1,0-.81l5.92-8.58a.75.75,0,0,1,1-.19.74.74,0,0,1,.19,1L441.19,450a.75.75,0,0,1-1,.19A.73.73,0,0,1,440,449.93Z" transform="translate(-409.11 -390.87)"/></svg>