<svg width="372" height="488" viewBox="0 0 372 488" fill="none" xmlns="http://www.w3.org/2000/svg">
<g clip-path="url(#clip0_3_611)">
<path d="M35.0983 349.737L46.9337 342.803L47.1378 191.081L35.3023 197.81L35.0983 349.737Z" fill="#232532"/>
<path d="M35.3023 197.81L47.1377 191.081L36.1185 184.759L24.2831 191.692L35.3023 197.81Z" fill="#495060"/>
<path d="M24.2831 191.693V343.415L35.0982 349.737L35.3023 197.81L24.2831 191.693Z" fill="#495060"/>
<path d="M107.335 385.832C107.335 385.832 102.846 401.127 107.743 406.633C109.172 408.06 115.089 408.672 122.027 407.041C126.517 406.021 131.414 403.37 135.903 402.758C148.963 400.923 156.922 393.785 162.431 386.648C174.063 371.149 153.044 375.84 139.168 380.734C124.476 385.832 107.335 385.832 107.335 385.832Z" fill="#181A1C"/>
<path d="M106.315 391.134C109.784 395.009 114.477 396.844 119.987 397.456C126.313 396.436 132.639 393.377 136.924 390.318C138.76 389.095 140.393 387.667 141.821 386.24L111.212 286.519C112.029 262.048 80.6035 264.291 70.1965 263.271C58.9732 262.252 60.6057 265.922 60.8097 277.138L106.315 391.134Z" fill="#001F3B"/>
<path d="M73.2573 285.295C74.4817 285.907 75.2979 287.335 75.5019 288.966C75.5019 288.966 75.5019 288.966 75.5019 289.17V313.03L71.8289 310.786V286.927C71.8289 286.927 71.8289 286.927 71.8289 286.723C71.6248 284.888 70.8086 283.664 69.5842 283.052L73.2573 285.295Z" fill="#1E2023"/>
<path d="M22.0384 315.273C22.2425 313.641 22.4466 312.01 22.8547 310.175C23.2628 308.543 23.875 306.912 24.6912 305.28C26.3237 301.814 28.3643 298.551 30.813 295.696C32.0374 294.268 33.4658 292.841 35.0982 291.821C35.9145 291.209 36.9348 290.598 37.751 289.986L63.6665 275.099C64.0746 274.895 64.6868 274.487 65.0949 274.283C66.5234 273.672 67.9518 273.264 69.1761 273.06C71.4208 272.652 73.2573 273.06 74.8898 274.079L78.5629 276.323C76.9304 275.303 75.0938 275.099 72.8492 275.303C71.6248 275.507 70.1964 275.915 68.768 276.527C68.3599 276.73 67.7477 276.934 67.3396 277.342L41.4241 292.229C40.4038 292.841 39.5875 293.453 38.7713 294.064C37.3429 295.288 35.9145 296.511 34.4861 297.939C32.0373 300.794 29.9968 304.057 28.3643 307.524C27.548 309.155 27.1399 310.786 26.5278 312.418C26.1196 314.049 25.7115 315.681 25.7115 317.312C25.7115 317.516 25.7115 317.516 25.7115 317.72V341.58L22.0384 339.336V315.477C21.8344 315.477 22.0384 315.273 22.0384 315.273Z" fill="#232532"/>
<path d="M41.4241 292.229C33.0577 296.919 26.3237 308.135 25.7115 317.924V341.784L33.2617 337.501V313.641C33.8739 308.747 37.3429 303.445 41.4241 300.998L67.3396 286.111C71.4208 283.664 74.8898 285.295 75.502 289.374V313.234L83.0522 300.386V284.888C82.44 276.119 75.502 272.652 67.3396 277.342L41.4241 292.229Z" fill="#232A2E"/>
<path d="M126.517 476.784L130.802 479.231C130.19 478.823 129.374 478.823 128.353 479.435L124.068 476.988C124.884 476.58 125.701 476.376 126.517 476.784Z" fill="#252E31"/>
<mask id="mask0_3_611" style="mask-type:luminance" maskUnits="userSpaceOnUse" x="124" y="476" width="7" height="4">
<path d="M126.517 476.784L130.802 479.231C130.19 478.823 129.374 478.823 128.353 479.435L124.068 476.988C124.884 476.58 125.701 476.376 126.517 476.784Z" fill="white"/>
</mask>
<g mask="url(#mask0_3_611)">
<path d="M128.149 479.639L123.864 477.192C124.272 476.988 124.68 476.784 124.884 476.784L129.17 479.231C128.965 479.231 128.557 479.435 128.149 479.639Z" fill="#252E31"/>
<path d="M129.374 479.027L125.088 476.58C125.701 476.376 126.109 476.58 126.517 476.784L130.598 479.231C130.394 479.027 129.782 479.027 129.374 479.027Z" fill="#252E31"/>
</g>
<path d="M125.701 487.796L121.415 485.349C120.803 484.941 120.395 484.125 120.395 483.106C120.395 480.862 122.027 478.211 123.864 477.192L128.149 479.639C126.313 480.659 124.68 483.514 124.68 485.553C124.68 486.572 125.088 487.388 125.701 487.796Z" fill="#252E31"/>
<mask id="mask1_3_611" style="mask-type:luminance" maskUnits="userSpaceOnUse" x="120" y="477" width="9" height="11">
<path d="M125.701 487.796L121.415 485.349C120.803 484.941 120.395 484.125 120.395 483.106C120.395 480.862 122.027 478.211 123.864 477.192L128.149 479.639C126.313 480.659 124.68 483.514 124.68 485.553C124.68 486.572 125.088 487.388 125.701 487.796Z" fill="white"/>
</mask>
<g mask="url(#mask1_3_611)">
<path d="M125.701 487.796L121.415 485.349C120.803 484.941 120.395 484.125 120.395 483.106C120.395 482.29 120.599 481.27 121.007 480.455L125.292 482.902C124.884 483.717 124.68 484.737 124.68 485.553C124.68 486.572 125.088 487.388 125.701 487.796Z" fill="#252E31"/>
<path d="M125.292 482.902L121.007 480.455C121.415 479.843 121.619 479.027 122.232 478.619L126.517 481.066C126.109 481.678 125.701 482.29 125.292 482.902Z" fill="#252E31"/>
<path d="M126.517 481.066L122.232 478.619C122.64 478.007 123.252 477.6 123.864 477.192L128.149 479.639C127.537 479.843 127.129 480.455 126.517 481.066Z" fill="#252E31"/>
</g>
<path d="M128.149 479.639C129.986 478.619 131.618 479.435 131.618 481.678C131.618 483.921 129.986 486.573 128.149 487.592C126.313 488.612 124.68 487.796 124.68 485.553C124.68 483.31 126.313 480.659 128.149 479.639Z" fill="#303A3E"/>
<path d="M63.2584 442.32L67.5436 444.767C66.9315 444.36 66.1152 444.359 65.0949 444.971L60.8097 442.524C61.6259 442.116 62.6462 441.912 63.2584 442.32Z" fill="#252E31"/>
<mask id="mask2_3_611" style="mask-type:luminance" maskUnits="userSpaceOnUse" x="60" y="442" width="8" height="3">
<path d="M63.2584 442.32L67.5436 444.767C66.9315 444.36 66.1152 444.359 65.0949 444.971L60.8097 442.524C61.6259 442.116 62.6462 441.912 63.2584 442.32Z" fill="white"/>
</mask>
<g mask="url(#mask2_3_611)">
<path d="M65.0949 445.175L60.8097 442.728C61.2178 442.524 61.6259 442.32 61.83 442.32L66.1152 444.767C65.7071 444.767 65.299 444.767 65.0949 445.175Z" fill="#252E31"/>
<path d="M66.1152 444.563L61.83 442.116C62.4421 441.912 62.8503 442.116 63.2584 442.32L67.5436 444.767C67.1355 444.563 66.5233 444.563 66.1152 444.563Z" fill="#252E31"/>
</g>
<path d="M62.4421 453.332L58.1569 450.885C57.5447 450.477 57.1366 449.662 57.1366 448.642C57.1366 446.399 58.7691 443.748 60.6056 442.728L64.8908 445.175C63.0543 446.195 61.4218 449.05 61.4218 451.089C61.4218 452.109 61.83 452.924 62.4421 453.332Z" fill="#252E31"/>
<mask id="mask3_3_611" style="mask-type:luminance" maskUnits="userSpaceOnUse" x="57" y="442" width="8" height="12">
<path d="M62.4421 453.332L58.1569 450.885C57.5447 450.477 57.1366 449.662 57.1366 448.642C57.1366 446.399 58.7691 443.748 60.6056 442.728L64.8908 445.175C63.0543 446.195 61.4218 449.05 61.4218 451.089C61.4218 452.109 61.83 452.924 62.4421 453.332Z" fill="white"/>
</mask>
<g mask="url(#mask3_3_611)">
<path d="M62.4421 453.332L58.1569 450.885C57.5447 450.477 57.1366 449.662 57.1366 448.642C57.1366 447.826 57.3407 446.807 57.7488 445.991L62.034 448.438C61.6259 449.254 61.4218 450.273 61.4218 451.089C61.4218 452.109 61.83 452.924 62.4421 453.332Z" fill="#252E31"/>
<path d="M62.034 448.438L57.7488 445.991C57.9528 445.379 58.361 444.767 58.9731 444.156L63.2584 446.603C62.8503 447.011 62.4421 447.826 62.034 448.438Z" fill="#252E31"/>
<path d="M63.2584 446.603L58.9731 444.156C59.3813 443.544 59.9934 443.136 60.6056 442.728L64.8909 445.175C64.4827 445.379 63.8706 445.991 63.2584 446.603Z" fill="#252E31"/>
</g>
<path d="M65.0949 445.175C67.1355 444.156 68.5639 444.971 68.5639 447.215C68.5639 449.458 66.9314 452.109 65.0949 453.128C63.2584 454.148 61.6259 453.332 61.6259 451.089C61.4218 448.846 63.0543 446.195 65.0949 445.175Z" fill="#303A3E"/>
<path d="M62.4422 476.58L58.157 479.027C58.7692 478.619 59.5854 478.619 60.6057 479.231L64.8909 476.784C64.0747 476.376 63.2585 476.172 62.4422 476.58Z" fill="#252E31"/>
<mask id="mask4_3_611" style="mask-type:luminance" maskUnits="userSpaceOnUse" x="58" y="476" width="7" height="4">
<path d="M62.4422 476.58L58.157 479.027C58.7692 478.619 59.5854 478.619 60.6057 479.231L64.8909 476.784C64.0747 476.376 63.2585 476.172 62.4422 476.58Z" fill="white"/>
</mask>
<g mask="url(#mask4_3_611)">
<path d="M60.8097 479.231L65.095 476.784C64.6869 476.58 64.2787 476.376 64.0747 476.376L59.7894 478.823C59.9935 479.027 60.4016 479.027 60.8097 479.231Z" fill="#252E31"/>
<path d="M59.5854 478.823L63.8706 476.376C63.2585 476.172 62.8503 476.376 62.4422 476.58L58.157 479.027C58.7692 478.823 59.1773 478.823 59.5854 478.823Z" fill="#252E31"/>
</g>
<path d="M63.2584 487.592L67.5436 485.145C68.1558 484.737 68.5639 483.921 68.5639 482.902C68.5639 480.659 66.9315 478.008 65.0949 476.988L60.8097 479.435C62.6462 480.455 64.2787 483.31 64.2787 485.349C64.2787 486.369 63.8706 487.184 63.2584 487.592Z" fill="#252E31"/>
<mask id="mask5_3_611" style="mask-type:luminance" maskUnits="userSpaceOnUse" x="60" y="476" width="9" height="12">
<path d="M63.2584 487.592L67.5436 485.145C68.1558 484.737 68.5639 483.921 68.5639 482.902C68.5639 480.659 66.9315 478.008 65.0949 476.988L60.8097 479.435C62.6462 480.455 64.2787 483.31 64.2787 485.349C64.2787 486.369 63.8706 487.184 63.2584 487.592Z" fill="white"/>
</mask>
<g mask="url(#mask5_3_611)">
<path d="M63.2584 487.592L67.5437 485.145C68.1558 484.737 68.564 483.921 68.564 482.902C68.564 482.086 68.3599 481.066 67.9518 480.251L63.6665 482.698C64.0747 483.514 64.2787 484.533 64.2787 485.349C64.2787 486.369 63.8706 487.184 63.2584 487.592Z" fill="#252E31"/>
<path d="M63.6665 482.698L67.9517 480.251C67.7477 479.639 67.3396 478.823 66.7274 478.415L62.4421 480.863C62.8503 481.474 63.2584 482.086 63.6665 482.698Z" fill="#252E31"/>
<path d="M62.4422 480.863L66.7274 478.415C66.3193 477.804 65.7071 477.192 65.0949 476.988L60.8097 479.435C61.4219 479.639 62.0341 480.251 62.4422 480.863Z" fill="#252E31"/>
</g>
<path d="M60.8097 479.231C58.9732 478.212 57.3407 479.027 57.3407 481.27C57.3407 483.514 58.9732 486.165 60.8097 487.184C62.6462 488.204 64.2787 487.388 64.2787 485.145C64.2787 483.106 62.6462 480.455 60.8097 479.231Z" fill="#303A3E"/>
<path d="M126.109 442.116L121.823 444.563C122.436 444.156 123.252 444.156 124.272 444.767L128.557 442.32C127.741 441.708 126.925 441.708 126.109 442.116Z" fill="#252E31"/>
<mask id="mask6_3_611" style="mask-type:luminance" maskUnits="userSpaceOnUse" x="121" y="441" width="8" height="4">
<path d="M126.109 442.116L121.823 444.563C122.436 444.156 123.252 444.156 124.272 444.767L128.557 442.32C127.741 441.708 126.925 441.708 126.109 442.116Z" fill="white"/>
</mask>
<g mask="url(#mask6_3_611)">
<path d="M124.476 444.767L128.761 442.32C128.353 442.116 127.945 441.912 127.741 441.912L123.456 444.359C123.66 444.359 124.068 444.563 124.476 444.767Z" fill="#252E31"/>
<path d="M123.252 444.359L127.537 441.912C126.925 441.912 126.517 441.912 126.109 442.116L121.823 444.563C122.232 444.359 122.844 444.156 123.252 444.359Z" fill="#252E31"/>
<path d="M122.028 444.359C121.823 444.563 121.823 444.563 122.028 444.359V444.359Z" fill="#252E31"/>
</g>
<path d="M126.925 452.924L131.21 450.477C131.822 450.069 132.23 449.254 132.23 448.234C132.23 445.991 130.598 443.34 128.761 442.32L124.476 444.767C126.313 445.787 127.945 448.642 127.945 450.681C127.945 451.905 127.537 452.517 126.925 452.924Z" fill="#252E31"/>
<mask id="mask7_3_611" style="mask-type:luminance" maskUnits="userSpaceOnUse" x="124" y="442" width="9" height="11">
<path d="M126.925 452.924L131.21 450.477C131.822 450.069 132.23 449.254 132.23 448.234C132.23 445.991 130.598 443.34 128.761 442.32L124.476 444.767C126.313 445.787 127.945 448.642 127.945 450.681C127.945 451.905 127.537 452.517 126.925 452.924Z" fill="white"/>
</mask>
<g mask="url(#mask7_3_611)">
<path d="M126.925 452.924L131.21 450.477C131.822 450.069 132.23 449.254 132.23 448.234C132.23 447.418 132.026 446.399 131.618 445.583L127.333 448.03C127.741 448.846 127.945 449.865 127.945 450.681C127.945 451.905 127.537 452.517 126.925 452.924Z" fill="#252E31"/>
<path d="M127.333 448.03L131.618 445.583C131.414 444.971 131.006 444.359 130.394 443.748L126.109 446.195C126.517 446.807 126.925 447.418 127.333 448.03Z" fill="#252E31"/>
<path d="M126.109 446.195L130.394 443.748C129.986 443.136 129.374 442.728 128.761 442.32L124.476 444.767C125.088 445.175 125.496 445.583 126.109 446.195Z" fill="#252E31"/>
</g>
<path d="M124.476 444.767C122.64 443.748 121.007 444.563 121.007 446.807C121.007 449.05 122.64 451.701 124.476 452.721C126.313 453.74 127.945 452.925 127.945 450.681C127.945 448.438 126.313 445.787 124.476 444.767Z" fill="#303A3E"/>
<path d="M57.3407 436.814V446.195L84.8887 462.101V452.517L57.3407 436.814Z" fill="#25282B"/>
<path d="M84.8887 452.517V462.101L94.6835 456.391V446.807L84.8887 452.517Z" fill="#181A1C"/>
<path d="M67.3396 431.104L57.3407 436.814L84.8887 452.517L94.6835 446.807L67.3396 431.104Z" fill="#2A2F32"/>
<path d="M104.682 452.517V462.101L132.23 446.195V436.814L104.682 452.517Z" fill="#181A1C"/>
<path d="M94.6835 458.227V467.811L104.682 462.101V452.517L94.6835 458.227Z" fill="#181A1C"/>
<path d="M67.1355 473.929V483.514L94.6835 467.811V458.227L67.1355 473.929Z" fill="#181A1C"/>
<path d="M94.6835 458.227V467.811L122.027 483.514V473.929L94.6835 458.227Z" fill="#25282B"/>
<path d="M57.1366 468.219L67.1355 473.929L94.6835 458.227L104.682 452.517L132.23 436.814L122.231 431.104L94.6835 446.807L84.8887 452.517L57.1366 468.219Z" fill="#2A2F32"/>
<path d="M57.1366 468.219L57.3407 477.804L67.1355 483.514V473.929L57.1366 468.219Z" fill="#25282B"/>
<path d="M122.027 473.929V483.514L132.026 477.804V468.219L122.027 473.929Z" fill="#181A1C"/>
<path d="M132.026 468.219L104.682 452.517L94.6835 458.227L122.027 473.929L132.026 468.219Z" fill="#2A2F32"/>
<path d="M94.6835 348.105L94.8876 458.227L83.6643 451.701V348.105H94.6835Z" fill="#232532"/>
<path d="M104.274 348.105L104.478 452.72L94.8875 458.227L94.6835 348.105H104.274Z" fill="#1E2023"/>
<path d="M34.4861 329.956C17.141 339.744 17.141 355.855 34.282 365.643L61.83 381.55C78.971 391.338 106.927 391.338 124.068 381.55L151.616 365.643C168.961 355.855 168.961 339.744 151.82 329.956L124.476 314.253C107.335 304.465 79.3791 304.465 62.2381 314.253L34.4861 329.956Z" fill="#1C4959"/>
<path d="M22.6506 345.046C24.4872 349.329 28.3643 353.407 34.282 356.874L61.83 372.781C70.6045 377.879 82.2359 380.326 93.6632 380.122C104.682 379.918 115.702 377.471 124.068 372.781L151.616 356.874C160.391 351.98 164.676 345.454 164.676 338.929V349.941C164.676 356.466 160.391 362.992 151.616 367.886L124.068 383.793C115.702 388.687 104.682 391.134 93.6632 391.134C82.0319 391.338 70.6045 388.687 61.83 383.793L34.282 367.886C28.3643 364.42 24.4872 360.341 22.6506 356.059C21.8344 354.019 21.4263 352.184 21.4263 350.145V339.133C21.4263 340.968 21.8344 343.007 22.6506 345.046Z" fill="#ED9C00"/>
<path d="M34.4863 320.983C17.1413 330.771 17.1413 346.882 34.2822 356.67L61.8302 372.577C78.9712 382.365 106.927 382.365 124.068 372.577L151.616 356.67C168.961 346.882 168.961 330.771 151.82 320.983L124.476 305.28C107.335 295.492 79.3793 295.492 62.2384 305.28L34.4863 320.983Z" fill="#FFC420"/>
<path d="M22.6506 354.019C24.4872 358.302 28.3643 362.38 34.282 365.847L61.83 381.754C70.6045 386.852 82.2359 389.299 93.6632 389.095C104.682 388.891 115.702 386.444 124.068 381.754L151.616 365.847C160.391 360.953 164.676 354.427 164.676 347.901V358.914C164.676 365.439 160.391 371.965 151.616 376.859L124.068 392.766C115.702 397.66 104.682 400.107 93.6632 400.107C82.0319 400.311 70.6045 397.66 61.83 392.766L34.282 376.859C28.3643 373.392 24.4872 369.314 22.6506 365.031C21.8344 362.992 21.4263 361.157 21.4263 359.118V348.105C21.4263 350.145 21.8344 351.98 22.6506 354.019Z" fill="#232A2E"/>
<path d="M149.983 280.809C140.189 275.099 124.272 275.303 114.477 281.013L38.5671 316.497C51.0148 321.799 69.3801 334.238 80.6033 341.988L150.188 301.406C159.778 295.696 159.778 286.315 149.983 280.809Z" fill="#0A2B42"/>
<path d="M164.472 405.205C164.472 405.205 159.982 420.5 164.88 426.006C166.308 427.433 172.226 428.045 179.164 426.414C183.653 425.394 188.551 422.743 193.04 422.131C206.304 420.296 209.569 414.586 215.078 407.448C226.71 391.95 205.692 396.64 191.816 401.534C177.327 406.633 164.472 405.205 164.472 405.205Z" fill="#181A1C"/>
<path d="M162.839 410.303C164.676 413.362 171.614 416.421 177.123 416.829C185.286 417.441 194.672 413.77 199.162 405.613L198.754 294.472C199.57 270.001 183.041 270.001 172.634 268.981C161.411 267.962 163.043 271.632 163.247 282.848L162.839 410.303Z" fill="#001F3B"/>
<path d="M183.245 296.511C173.45 290.801 157.534 291.005 147.739 296.715L71.8289 332.199C84.2765 337.501 102.642 349.941 113.865 357.69L183.449 317.108C193.244 311.398 193.04 302.221 183.245 296.511Z" fill="#001F3B"/>
<path d="M153.044 268.369C156.921 277.138 153.044 287.539 144.27 291.617C135.495 295.492 125.088 291.617 121.211 282.644L92.6428 220.038C88.7657 211.27 92.6428 200.869 101.417 196.791C110.192 192.916 120.599 196.791 124.476 205.763L153.044 268.369Z" fill="#113E5D"/>
<path d="M177.94 421.112V418.053H165.492V417.849L163.043 421.927L164.268 428.249C164.268 428.249 171.41 433.143 172.838 432.736C173.042 432.736 173.246 432.532 173.45 432.532L184.265 426.21L183.857 424.986C186.102 424.171 188.347 423.355 190.591 422.539H190.795C191.816 422.131 192.836 421.723 193.856 421.316L194.264 421.112H177.94Z" fill="#181A1C"/>
<path d="M204.059 273.876L215.487 267.146L215.282 444.156L203.855 450.885L204.059 273.876Z" fill="#333A43"/>
<path d="M194.264 268.166L205.692 261.64L215.487 267.146L204.059 273.876L194.264 268.166Z" fill="#65B7A7"/>
<path d="M204.059 273.876L203.855 450.885L193.856 445.175L194.264 268.166L204.059 273.876Z" fill="#232732"/>
<path d="M322.822 248.589L334.249 241.859L334.045 375.432L322.618 382.161L322.822 248.589Z" fill="#333A43"/>
<path d="M313.027 242.878L324.454 236.353L334.249 241.859L322.822 248.588L313.027 242.878Z" fill="#65B7A7"/>
<path d="M322.822 248.589L322.618 382.161L312.823 376.451L313.027 242.879L322.822 248.589Z" fill="#232732"/>
<path d="M358.736 243.082V253.891L206.1 342.599V331.587L358.736 243.082Z" fill="#232732"/>
<path d="M206.1 331.587V342.599L35.9144 244.306V233.498L206.1 331.587Z" fill="#232732"/>
<path d="M358.736 243.082L206.1 331.587L35.9144 233.498L188.551 144.789L358.736 243.082Z" fill="#495460"/>
<path d="M173.042 126.028C171.818 125.212 170.593 125.824 170.593 127.455L170.389 175.786C170.389 177.214 171.41 179.049 172.838 179.865L249.156 223.913C250.381 224.729 251.605 224.117 251.605 222.486L251.809 174.155C251.809 172.727 250.789 170.892 249.36 170.076L173.042 126.028Z" fill="#44BCF2"/>
<path d="M116.314 211.474C116.314 211.678 116.314 211.678 116.314 211.881C116.314 211.881 116.314 211.881 116.314 212.085V212.289C116.314 212.289 116.314 212.289 116.314 212.493V212.697C116.314 212.697 116.314 212.697 116.314 212.901C116.314 212.901 116.314 213.105 116.518 213.105C116.518 213.105 116.518 213.105 116.518 213.309L116.722 213.513C116.722 213.513 116.722 213.513 116.926 213.717C116.926 213.717 116.926 213.717 117.13 213.921C117.13 213.921 117.334 213.921 117.334 214.125C117.334 214.125 117.538 214.125 117.538 214.329L117.742 214.533L147.739 231.866V230.031L154.269 226.156L144.678 220.65V220.039L144.066 220.446L131.006 212.901V208.415L137.128 204.948L138.556 205.764V204.132L140.597 202.909L144.678 200.665L151.82 196.587L153.657 197.606V195.567L159.778 192.1L161.207 191.693V190.061L167.329 186.594L173.654 190.265V191.693L174.879 191.081L181.205 194.751V196.179L182.429 195.567L188.755 199.238V200.665L189.979 200.054L196.305 203.724V205.152L197.529 204.54L203.855 208.211V209.638L205.079 209.026L211.405 212.697V214.125L212.63 213.513L218.956 217.184V218.611L220.18 217.999L226.506 221.67V223.097L227.73 222.486L234.056 226.156V230.643L230.587 232.682L232.015 233.498V231.866L238.137 228.4L244.463 232.07V236.557L238.341 240.024L236.913 239.208V240.839L230.791 244.306L229.363 243.49V245.122L223.241 248.589L221.812 247.773V249.404L215.691 252.871L214.262 252.055V253.687L208.14 257.153L194.877 249.404V248.589L194.06 248.996L184.265 243.286V242.267L183.449 242.879L179.776 240.839V242.675L173.246 246.549L197.733 260.62C197.937 260.824 198.346 260.824 198.55 261.028H198.754C198.958 261.028 199.162 261.232 199.366 261.232C199.57 261.232 199.774 261.232 199.774 261.436C199.978 261.436 200.182 261.436 200.59 261.64C200.59 261.64 200.59 261.64 200.794 261.64C201.202 261.64 201.406 261.64 201.815 261.64H202.019C202.427 261.64 202.631 261.64 202.835 261.64H203.039C203.243 261.64 203.651 261.64 203.855 261.436H204.059C204.263 261.436 204.671 261.232 204.875 261.232C205.079 261.028 205.488 261.028 205.692 260.824L251.401 234.314C252.421 233.702 253.033 232.886 253.033 232.07C253.033 233.498 253.033 235.129 253.033 236.557C253.033 237.372 252.421 238.188 251.401 238.8L205.692 265.311C205.488 265.515 205.079 265.515 204.875 265.718C204.671 265.718 204.467 265.922 204.263 265.922H204.059H203.855H203.651C203.447 265.922 203.243 265.922 203.039 265.922H202.835C202.835 265.922 202.835 265.922 202.631 265.922H202.427C202.223 265.922 202.019 265.922 201.815 265.922C201.815 265.922 201.815 265.922 201.61 265.922C201.61 265.922 201.61 265.922 201.406 265.922H201.202C200.998 265.922 200.794 265.922 200.59 265.922C200.59 265.922 200.59 265.922 200.386 265.922C200.182 265.922 199.978 265.922 199.774 265.922H199.57C199.366 265.922 199.162 265.922 199.162 265.718C199.162 265.718 198.958 265.718 198.754 265.718H198.55H198.346C198.141 265.515 197.733 265.515 197.529 265.311L117.946 218.203C117.946 218.203 117.742 218.203 117.742 217.999C117.742 217.999 117.538 217.999 117.538 217.795C117.538 217.795 117.334 217.795 117.334 217.591C117.334 217.591 117.334 217.591 117.13 217.388L116.926 217.184C116.926 217.184 116.926 216.98 116.722 216.98V216.776V216.572C116.722 216.572 116.722 216.572 116.722 216.368V216.164C116.722 216.164 116.722 216.164 116.722 215.96C116.314 214.533 116.314 212.901 116.314 211.474Z" fill="#C0C0C0"/>
<path d="M117.946 209.23L163.655 182.72C165.9 181.496 169.369 181.496 171.41 182.72L250.789 228.604C253.033 229.827 253.033 231.866 250.789 233.09L205.079 259.601C202.835 260.824 199.366 260.824 197.325 259.601L117.946 213.717C115.702 212.493 115.702 210.454 117.946 209.23Z" fill="white"/>
<path d="M170.389 197.199L164.472 200.665L170.593 204.336L176.715 200.869L170.389 197.199Z" fill="#0A2F4D"/>
<path d="M160.799 200.054L154.677 203.724L161.003 207.395L167.124 203.724L160.799 200.054Z" fill="#0A2F4D"/>
<path d="M152.024 195.567L144.882 199.646L141.005 201.889L138.964 203.112L149.575 209.23L155.493 205.764L152.228 203.928L159.37 199.85L152.024 195.567Z" fill="#0A2F4D"/>
<path d="M167.941 204.336L161.819 207.803L168.145 211.474L174.062 207.803L167.941 204.336Z" fill="#0A2F4D"/>
<path d="M137.536 203.928L131.414 207.395L144.474 214.94L150.392 211.474L137.536 203.928Z" fill="#0A2F4D"/>
<path d="M151.004 211.881L145.086 215.348L154.881 221.058L161.003 217.591L151.004 211.881Z" fill="#0A2F4D"/>
<path d="M170.389 214.328L164.472 217.795L170.593 221.466L176.715 217.999L170.389 214.328Z" fill="#0A2F4D"/>
<path d="M167.329 186.594L161.207 190.265L167.533 193.936L173.654 190.265L167.329 186.594Z" fill="#0A2F4D"/>
<path d="M174.675 191.081L168.757 194.547L175.083 198.218L181.001 194.751L174.675 191.081Z" fill="#0A2F4D"/>
<path d="M159.778 191.081L153.657 194.547L163.451 200.054L169.573 196.587L159.778 191.081Z" fill="#0A2F4D"/>
<path d="M182.225 195.363L176.103 198.83L182.429 202.501L188.551 199.034L182.225 195.363Z" fill="#0A2F4D"/>
<path d="M189.775 199.646L183.653 203.316L189.979 206.987L196.101 203.316L189.775 199.646Z" fill="#0A2F4D"/>
<path d="M177.531 201.277L171.614 204.744L177.94 208.415L183.857 204.948L177.531 201.277Z" fill="#0A2F4D"/>
<path d="M197.325 204.132L191.203 207.599L197.529 211.27L203.651 207.803L197.325 204.132Z" fill="#0A2F4D"/>
<path d="M184.878 205.356L178.756 209.026L185.082 212.697L190.999 209.026L184.878 205.356Z" fill="#0A2F4D"/>
<path d="M156.309 206.171L150.392 209.638L156.513 213.309L162.635 209.842L156.309 206.171Z" fill="#0A2F4D"/>
<path d="M204.671 208.415L198.754 211.881L204.875 215.552L210.997 212.085L204.671 208.415Z" fill="#0A2F4D"/>
<path d="M174.879 208.415L168.757 211.881L175.083 215.552L181.205 212.085L174.879 208.415Z" fill="#0A2F4D"/>
<path d="M192.02 209.638L185.898 213.105L192.224 216.776L198.345 213.309L192.02 209.638Z" fill="#0A2F4D"/>
<path d="M163.451 210.25L157.33 213.921L163.655 217.387L169.777 213.921L163.451 210.25Z" fill="#0A2F4D"/>
<path d="M182.021 212.493L175.899 215.96L182.225 219.631L188.347 216.164L182.021 212.493Z" fill="#0A2F4D"/>
<path d="M212.222 212.697L206.1 216.368L212.426 219.835L218.547 216.368L212.222 212.697Z" fill="#0A2F4D"/>
<path d="M199.162 213.717L193.04 217.184L199.366 220.854L205.488 217.387L199.162 213.717Z" fill="#0A2F4D"/>
<path d="M189.163 216.572L183.041 220.039L189.367 223.709L195.489 220.242L189.163 216.572Z" fill="#0A2F4D"/>
<path d="M219.772 217.183L213.65 220.65L219.976 224.321L226.098 220.854L219.772 217.183Z" fill="#0A2F4D"/>
<path d="M206.304 217.999L200.182 221.466L206.508 225.137L212.63 221.67L206.304 217.999Z" fill="#0A2F4D"/>
<path d="M177.736 218.611L171.818 222.078L177.94 225.748L184.061 222.282L177.736 218.611Z" fill="#0A2F4D"/>
<path d="M196.101 220.65L190.183 224.117L196.305 227.788L202.427 224.321L196.101 220.65Z" fill="#0A2F4D"/>
<path d="M227.322 221.466L221.2 224.933L227.526 228.604L233.444 225.137L227.322 221.466Z" fill="#0A2F4D"/>
<path d="M213.446 222.078L207.324 225.545L213.65 229.215L219.772 225.748L213.446 222.078Z" fill="#0A2F4D"/>
<path d="M184.878 222.69L178.756 226.156L185.082 229.827L190.999 226.36L184.878 222.69Z" fill="#0A2F4D"/>
<path d="M203.243 224.729L197.121 228.4L203.447 231.866L209.569 228.4L203.243 224.729Z" fill="#0A2F4D"/>
<path d="M191.816 226.768L185.898 230.235L192.02 233.906L198.141 230.439L191.816 226.768Z" fill="#0A2F4D"/>
<path d="M237.525 227.38L231.403 231.051L237.729 234.721L243.851 231.051L237.525 227.38Z" fill="#0A2F4D"/>
<path d="M210.385 228.807L204.263 232.478L210.589 236.149L216.711 232.478L210.385 228.807Z" fill="#0A2F4D"/>
<path d="M161.615 217.795L155.493 221.466L183.041 237.372L189.163 233.906L161.615 217.795Z" fill="#0A2F4D"/>
<path d="M198.958 230.847L192.836 234.313L199.162 237.984L205.284 234.517L198.958 230.847Z" fill="#0A2F4D"/>
<path d="M220.996 226.36L214.874 230.031L230.383 239.004L236.505 235.333L220.996 226.36Z" fill="#0A2F4D"/>
<path d="M156.921 223.913L147.943 229.215L170.593 242.267L179.572 237.169L156.921 223.913Z" fill="#0A2F4D"/>
<path d="M217.527 233.09L211.405 236.557L222.833 243.286L228.954 239.616L217.527 233.09Z" fill="#0A2F4D"/>
<path d="M190.183 234.517L184.061 237.984L193.856 243.694L199.978 240.227L190.183 234.517Z" fill="#0A2F4D"/>
<path d="M206.1 234.925L199.978 238.596L215.487 247.569L221.608 244.102L206.1 234.925Z" fill="#0A2F4D"/>
<path d="M200.794 240.635L194.672 244.102L207.936 251.851L214.058 248.385L200.794 240.635Z" fill="#0A2F4D"/>
<path d="M169.165 120.522C169.777 120.318 169.981 119.91 170.389 119.706C170.798 119.502 171.206 119.298 171.41 119.094C172.226 118.686 173.042 118.686 174.267 119.298L253.85 165.182C256.094 166.405 257.727 169.464 257.727 171.911L257.523 224.729C257.523 225.952 257.115 226.768 256.298 227.176C255.278 227.788 254.462 228.196 253.442 228.807C254.054 228.4 254.666 227.584 254.666 226.36L254.87 173.543C254.87 171.096 253.033 168.037 250.993 166.813L171.614 121.133C170.593 120.522 169.573 120.522 168.757 120.929C168.961 120.725 168.961 120.725 169.165 120.522Z" fill="#C0C0C0"/>
<path d="M250.993 166.813C253.237 168.037 254.87 171.096 254.87 173.543L254.666 226.36C254.666 228.807 252.829 229.827 250.789 228.603L171.41 182.924C169.165 181.7 167.533 178.641 167.533 176.194L167.737 123.377C167.737 120.929 169.573 119.91 171.614 121.133L250.993 166.813ZM170.593 175.786C170.593 177.214 171.614 179.049 173.042 179.865L249.36 223.913C250.585 224.729 251.809 224.117 251.809 222.486L252.013 174.155C252.013 172.727 250.993 170.892 249.564 170.076L173.042 126.028C171.818 125.212 170.593 125.824 170.593 127.455V175.786Z" fill="#F8F9FC"/>
<path d="M236.301 166.405L183.857 136.224V183.331L236.301 213.717V166.405Z" fill="white"/>
<path d="M232.015 168.037L188.143 142.75V181.7L232.015 206.987V168.037Z" fill="#002542"/>
<path d="M204.467 161.511L220.18 181.088L204.467 182.516V161.511Z" fill="white"/>
<path d="M137.944 211.677C136.72 210.25 134.475 210.25 133.251 211.473C131.822 212.697 131.822 214.94 133.047 216.164L145.494 229.827C146.719 231.255 148.963 231.255 150.188 230.031C151.616 228.807 151.616 226.564 150.392 225.341L137.944 211.677Z" fill="#E9C1AE"/>
<path d="M134.271 202.297L147.535 200.665L159.37 204.744C160.391 205.152 166.104 207.191 166.716 210.454C167.124 212.697 167.941 225.341 163.451 224.933C160.595 224.525 137.128 218.203 137.128 218.203C135.495 217.999 130.598 219.019 129.578 218.203L122.844 213.105L134.271 202.297Z" fill="#E9C1AE"/>
<path d="M125.496 192.916C135.087 194.547 141.617 203.52 139.985 213.105C138.352 222.69 129.374 229.011 119.783 227.584L86.9292 218.203C77.3384 216.572 70.8085 207.599 72.441 198.014C74.0735 188.43 83.0521 182.108 92.6429 183.535L125.496 192.916Z" fill="#0E9CA9"/>
<path d="M110.6 200.461C110.6 192.1 107.539 186.186 100.397 181.496C95.2957 178.233 87.3374 175.786 81.2156 172.931C75.5019 170.28 64.0746 168.037 58.7691 170.688C52.0351 174.359 47.1377 180.68 47.1377 188.634C47.1377 202.909 49.1783 267.758 63.4624 267.758C77.7466 267.962 110.6 214.736 110.6 200.461Z" fill="#E0B09B"/>
<path d="M63.8705 170.892C63.8705 179.457 79.175 181.7 90.6023 182.924C93.051 180.68 94.2753 178.641 94.2753 178.641L94.6835 161.307L64.0746 158.656L63.4624 170.484C63.6665 170.688 63.8705 170.892 63.8705 170.892Z" fill="#E0B09B"/>
<path d="M46.1174 356.262C68.768 368.906 98.9687 369.314 120.803 353.611C125.7 349.941 129.986 345.454 133.659 340.56L135.903 247.161C132.434 198.83 109.376 185.371 100.601 181.496C100.601 181.496 91.6226 191.693 71.6248 187.41C51.2189 182.924 58.7691 170.892 58.7691 170.892C32.2414 171.3 32.2414 205.56 31.4251 217.795C29.9967 240.839 28.5683 290.19 28.9764 328.936C31.017 338.113 36.5266 350.96 46.1174 356.262Z" fill="#0CBDCB"/>
<path d="M177.736 255.726C177.327 257.561 175.491 258.581 173.654 258.173C171.818 257.765 170.798 255.93 171.206 254.095L175.899 236.149C176.307 234.313 178.144 233.294 179.98 233.702C181.817 234.11 182.837 235.945 182.429 237.78L177.736 255.726Z" fill="#E9C1AE"/>
<path d="M168.349 254.298L178.348 242.267L188.551 235.129C189.571 234.517 194.468 231.255 197.529 232.682C199.57 233.702 210.181 240.635 207.12 243.898C205.08 245.937 186.102 261.028 186.102 261.028C184.878 262.252 182.837 266.738 181.613 266.942L173.654 269.389L168.349 254.298Z" fill="#E9C1AE"/>
<path d="M152.84 273.468C156.105 283.052 151.004 293.249 141.617 296.512C132.23 299.774 121.823 294.676 118.558 285.092L95.2957 217.795C92.0307 208.211 97.1322 198.014 106.519 194.751C115.906 191.489 126.313 196.587 129.578 206.171L152.84 273.468Z" fill="#16A8B9"/>
<path d="M157.942 250.016C166.104 244.714 176.919 246.957 182.225 255.114C187.53 263.271 185.286 274.08 177.123 279.382L146.515 294.676C138.352 299.978 127.537 297.735 122.231 289.578C116.926 281.421 119.171 270.613 127.333 265.311L157.942 250.016Z" fill="#16A8B9"/>
<path d="M48.3621 389.707L53.0554 386.852L53.2595 274.691L48.5661 277.342L48.3621 389.707Z" fill="#232A2E"/>
<path d="M48.5661 277.342L53.2594 274.691L41.0159 267.554L36.3225 270.409L48.5661 277.342Z" fill="#2A2F32"/>
<path d="M36.3225 270.409L35.9144 382.773L48.362 389.707L48.5661 277.342L36.3225 270.409Z" fill="#232532"/>
<path d="M14.4882 197.199L22.8546 192.508C22.6505 192.712 22.4465 192.712 22.2424 192.916L13.876 197.606C14.08 197.606 14.2841 197.402 14.4882 197.199Z" fill="#308380"/>
<path d="M22.8546 192.508C27.1398 190.265 32.4454 189.653 38.3631 191.081C42.4443 191.896 46.7295 193.528 51.2188 196.179C58.565 200.461 65.707 206.579 71.6247 213.921C76.5222 220.038 80.8074 226.564 83.8683 233.294C86.5211 239.412 88.3576 245.326 88.7657 250.832L93.4591 310.583C94.0713 319.555 91.4185 325.673 86.317 328.732L77.9506 333.626C83.0521 330.567 85.9089 324.45 85.0927 315.477L80.3993 255.726C79.9912 250.22 78.1546 244.102 75.5019 238.188C72.441 231.458 68.1557 224.729 63.2583 218.815C57.3406 211.677 50.1985 205.356 42.8524 201.073C38.3631 198.626 34.0778 196.791 29.9967 195.975C24.0789 194.751 18.5693 195.363 14.4882 197.402L22.8546 192.508Z" fill="#ED9C00"/>
<path d="M42.8524 200.869C23.6709 189.857 6.73395 195.159 5.10147 212.493L-6.13928e-06 266.534C-1.63248 283.868 12.8557 307.116 32.2414 318.332L52.6473 329.956C72.0329 340.968 86.5211 334.442 85.0927 315.273L80.3993 255.522C78.9709 236.353 62.034 211.677 42.8524 200.869Z" fill="#FFC420"/>
<path d="M154.677 341.58C155.901 342.191 156.717 343.619 156.922 345.25C156.922 345.25 156.922 345.25 156.922 345.454V369.314L153.248 367.071V343.211C153.248 343.211 153.248 343.211 153.248 343.007C153.044 341.172 152.228 339.948 151.004 339.336L154.677 341.58Z" fill="#1E2023"/>
<path d="M103.458 371.353C103.662 369.722 103.866 368.09 104.274 366.255C104.682 364.624 105.295 362.992 106.111 361.361C107.743 357.894 109.784 354.631 112.233 351.776C113.457 350.349 114.885 348.921 116.518 347.901C117.334 347.29 118.354 346.678 119.171 346.066L145.086 331.179C145.494 330.975 146.106 330.568 146.515 330.364C147.943 329.752 149.371 329.344 150.596 329.14C152.84 328.732 154.677 329.14 156.309 330.16L159.982 332.403C158.35 331.383 156.513 331.179 154.269 331.383C153.044 331.587 151.616 331.995 150.188 332.607C149.779 332.811 149.167 333.015 148.759 333.423L122.844 348.309C121.823 348.921 121.007 349.533 120.191 350.145C118.762 351.368 117.334 352.592 115.906 354.019C113.457 356.874 111.416 360.137 109.784 363.604C108.968 365.235 108.559 366.867 107.947 368.498C107.539 370.13 107.131 371.965 107.131 373.596C107.131 373.8 107.131 373.8 107.131 374.004V397.864L103.458 395.621V371.761C103.458 371.557 103.458 371.557 103.458 371.353Z" fill="#232532"/>
<path d="M123.048 348.309C114.681 353 107.947 364.216 107.335 374.004V397.864L114.885 393.581V369.722C115.497 364.827 118.966 359.525 123.048 357.078L148.963 342.191C153.044 339.744 156.513 341.376 157.126 345.454V369.314L164.676 356.466V340.968C164.064 332.199 157.126 328.732 148.963 333.423L123.048 348.309Z" fill="#232A2E"/>
<path d="M111.62 94.2149C101.622 86.2617 93.4591 83.4067 87.3374 83.4067C79.175 82.1831 70.4004 83.6106 63.2584 87.8931C58.1569 90.952 54.2798 94.0109 51.0148 97.0698C48.7702 99.1091 47.1377 101.352 45.9133 103.392C44.689 105.431 43.8727 107.47 43.2606 109.509C43.0565 109.917 42.8524 110.529 42.8524 111.141C36.3225 131.33 59.9934 156.005 61.0137 156.821C65.299 165.182 84.0724 168.649 85.2968 165.59C85.7049 164.57 83.8683 161.103 83.0521 157.025C86.113 156.005 89.582 153.762 93.8672 150.907C106.519 141.934 112.641 129.698 111.416 112.161C115.089 112.568 115.906 111.957 115.906 111.957C115.906 111.957 118.967 99.9248 111.62 94.2149Z" fill="#753B19"/>
<path d="M116.518 133.165C116.722 133.573 116.518 134.389 115.906 135C114.681 136.428 113.049 137.448 112.437 139.283C112.028 140.303 112.233 141.322 112.028 142.342C111.824 143.361 111.212 144.789 110.396 145.197C110.804 146.216 111.008 147.236 110.6 148.46C110.192 149.275 109.58 150.091 109.172 151.111C108.559 152.946 110.396 153.354 110.192 155.189C110.192 155.597 109.988 156.005 109.784 156.617C109.784 156.821 109.58 157.025 109.58 157.229C108.559 159.676 107.131 162.123 105.09 163.346C104.07 163.958 103.254 164.162 102.234 164.366C98.7646 165.182 95.2956 165.998 91.6225 166.813C90.6022 167.017 85.0926 166.405 85.2967 166.201C85.9089 164.774 80.8074 156.413 83.8683 150.907C84.6845 149.683 83.4602 147.644 84.2764 146.216C89.9901 136.224 96.9281 125.008 98.7646 123.58C100.805 121.949 97.9484 110.121 103.662 111.549C107.335 112.364 109.988 112.772 111.824 112.976C111.824 113.588 111.824 113.996 111.824 114.608C112.437 116.647 113.253 118.278 112.845 120.929C112.641 122.357 111.824 123.784 111.824 125.212C111.62 127.251 113.049 128.271 114.069 129.29C114.885 129.902 115.906 131.534 116.518 133.165Z" fill="#E9C1AE"/>
<path d="M91.2145 135.816C91.2145 141.73 82.0319 140.507 82.0319 134.593C82.0319 122.765 77.9507 112.976 66.3193 108.49C60.8097 106.247 49.5864 104.003 46.1174 100.944C47.3418 98.9052 48.9743 96.662 51.2189 94.6227C61.83 96.0502 74.4817 99.9248 81.6237 107.266C89.378 115.015 91.2145 125.212 91.2145 135.816Z" fill="#034167"/>
<path d="M97.7444 129.29C97.7444 121.541 92.2348 118.482 85.7049 122.357C78.9709 126.232 73.6654 135.612 73.6654 143.362C73.6654 151.111 79.175 154.17 85.7049 150.295C92.2348 146.42 97.7444 137.04 97.7444 129.29Z" fill="#00192A"/>
<path d="M99.989 131.126C99.989 123.377 94.4794 120.318 87.9495 124.192C81.2156 128.067 75.91 137.448 75.91 145.197C75.91 152.946 81.4196 156.005 87.9495 152.13C94.4794 148.256 99.989 138.875 99.989 131.126Z" fill="#034167"/>
<path d="M236.301 293.249L234.668 292.229C234.872 291.617 235.28 291.005 235.484 290.598C235.892 289.782 236.301 288.966 236.505 288.354L238.137 289.374C237.729 290.19 237.525 291.005 237.117 291.617C236.913 292.025 236.709 292.637 236.301 293.249Z" fill="#0591BC"/>
<path d="M245.279 271.836L246.912 272.856C247.116 273.06 247.32 274.283 246.708 276.934C245.279 282.848 242.626 286.723 238.545 289.17H238.341L236.709 288.15H236.913C240.994 285.703 243.851 281.625 245.075 275.915C245.687 273.264 245.687 272.04 245.279 271.836Z" fill="#A83426"/>
<path d="M247.116 268.573L248.748 269.593C247.728 268.981 246.095 269.593 244.667 270.409L243.035 269.389C244.463 268.573 246.095 267.962 247.116 268.573Z" fill="#F05B4C"/>
<path d="M240.586 275.507L238.953 274.487C239.157 273.264 239.157 272.244 239.361 271.021L240.994 272.04C240.79 273.264 240.79 274.487 240.586 275.507Z" fill="#08B3E7"/>
<path d="M240.994 272.244L239.361 271.224C239.77 270.817 242.422 269.593 243.035 269.389L244.667 270.409C244.055 270.613 241.402 271.836 240.994 272.244Z" fill="#F05B4C"/>
<path d="M244.667 270.409C247.728 268.573 251.197 267.962 249.36 276.323C247.32 284.888 243.035 289.782 238.545 292.229C237.729 292.637 237.117 293.045 236.301 293.249C236.505 292.637 236.913 292.025 237.117 291.617C237.525 290.801 237.933 289.986 238.137 289.374H238.341C242.422 286.927 245.279 282.848 246.504 277.138C247.116 274.691 246.912 273.468 246.708 273.06C246.504 272.856 245.483 273.06 244.259 273.672C243.647 274.079 240.586 275.507 240.178 275.915C240.382 274.691 240.382 273.672 240.586 272.448C241.402 271.836 244.055 270.613 244.667 270.409Z" fill="#FF513D"/>
<path d="M241.606 268.369V294.268C241.606 296.308 240.382 298.347 237.525 299.774C235.28 300.998 232.627 301.814 229.771 302.018V276.323C232.627 276.119 235.28 275.303 237.525 274.079C240.382 272.448 241.606 270.409 241.606 268.369Z" fill="#FF513D"/>
<path d="M229.771 276.119V301.814C225.689 302.221 221.404 301.406 218.139 299.57C215.487 297.939 214.058 295.9 214.058 293.86V267.962C214.058 270.001 215.487 272.04 218.139 273.672C221.404 275.711 225.689 276.527 229.771 276.119Z" fill="#A83426"/>
<path d="M237.525 262.659C242.83 265.718 242.83 270.817 237.525 273.875C232.219 276.934 223.445 276.934 218.139 273.875C212.834 270.817 212.834 265.718 218.139 262.659C223.445 259.601 232.219 259.601 237.525 262.659Z" fill="#F05B4C"/>
<path d="M236.096 263.475C240.586 266.126 240.586 270.205 236.096 272.856C231.607 275.507 224.465 275.507 219.976 272.856C215.486 270.205 215.486 266.126 219.976 263.475C224.261 261.028 231.607 261.028 236.096 263.475Z" fill="#F1F2F2"/>
<path d="M219.772 273.06C224.261 275.711 231.607 275.711 235.892 273.06C237.525 272.04 238.545 270.817 238.953 269.593C238.545 268.369 237.525 266.942 235.688 266.126C231.199 263.475 223.853 263.475 219.568 266.126C217.935 267.146 216.915 268.369 216.507 269.593C217.119 270.817 218.139 272.04 219.772 273.06Z" fill="#451E00"/>
<path d="M331.8 247.569C331.8 248.181 331.392 248.792 330.576 249.2L322.618 253.687V251.851C322.618 251.647 322.414 251.239 322.005 251.035L324.862 249.404C325.066 249.2 325.27 248.996 325.27 248.792V245.122C325.27 244.918 325.066 244.714 324.862 244.51L294.253 226.768C293.641 226.36 292.621 226.36 292.009 226.768L284.663 231.051C284.663 230.439 284.663 230.031 284.663 229.623C284.663 229.419 284.663 229.419 284.459 229.215C284.05 229.011 283.642 229.011 283.234 229.215L277.929 232.274C277.725 232.274 277.725 232.478 277.725 232.682V235.129L273.847 237.372C273.643 237.576 273.439 237.78 273.439 237.984V240.227L270.174 238.392C269.358 237.984 268.95 237.372 268.95 236.761C268.95 237.984 268.95 239.208 268.95 240.431C268.95 241.043 269.358 241.655 270.174 242.063L307.109 263.475C308.538 264.291 311.19 264.291 312.619 263.475L330.576 253.075C331.392 252.667 331.8 252.055 331.8 251.443C331.8 250.016 331.8 248.792 331.8 247.569Z" fill="#C0C0C0"/>
<path d="M325.066 244.51L294.457 226.768C293.845 226.36 292.825 226.36 292.213 226.768L274.256 237.168C273.643 237.576 273.643 238.188 274.256 238.392L304.864 256.134C305.477 256.542 306.497 256.542 307.109 256.134L325.066 245.733C325.679 245.326 325.679 244.918 325.066 244.51Z" fill="#44BCF2"/>
<path d="M318.945 251.036C319.761 250.628 321.189 250.424 322.21 251.036C323.026 251.443 323.026 252.463 322.21 252.871L318.945 254.706C318.128 255.114 316.7 255.318 315.68 254.706C314.863 254.298 314.863 253.279 315.68 252.871L318.945 251.036Z" fill="#232532"/>
<path d="M288.336 224.525C289.764 223.709 292.417 223.709 293.845 224.525L330.78 245.937C332.208 246.753 332.208 248.181 330.78 249.2L312.823 259.601C311.394 260.416 308.742 260.416 307.313 259.601L270.379 238.188C268.95 237.372 268.95 235.945 270.379 234.925L288.336 224.525ZM325.066 244.51L294.457 226.768C293.845 226.36 292.825 226.36 292.213 226.768L274.256 237.168C273.643 237.576 273.643 238.188 274.256 238.392L304.864 256.134C305.477 256.542 306.497 256.542 307.109 256.134L325.066 245.733C325.679 245.326 325.679 244.918 325.066 244.51ZM322.21 252.871C323.026 252.463 323.026 251.443 322.21 251.036C321.393 250.628 319.965 250.628 318.945 251.036L315.68 252.871C314.863 253.279 314.863 254.298 315.68 254.706C316.496 255.114 317.924 255.114 318.945 254.706L322.21 252.871ZM278.133 232.07C277.725 232.274 277.725 232.682 278.133 232.682C278.541 232.886 278.949 232.886 279.357 232.682L284.663 229.623C285.071 229.419 285.071 229.011 284.663 229.011C284.255 228.807 283.846 228.807 283.438 229.011L278.133 232.07Z" fill="#FEFEFE"/>
<path d="M283.438 229.011C283.846 228.807 284.255 228.807 284.663 229.011C285.071 229.215 285.071 229.623 284.663 229.623L279.357 232.682C278.949 232.886 278.541 232.886 278.133 232.682C277.725 232.478 277.725 232.07 278.133 232.07L283.438 229.011Z" fill="#232532"/>
<path d="M302.008 236.353L299.967 237.576L297.314 239.004L295.07 240.431L292.417 241.859L292.213 242.063L296.906 237.984L298.743 236.353L299.763 235.333C299.967 235.129 299.967 234.721 299.559 234.721L297.927 234.109H297.722C297.722 234.109 297.722 234.109 297.518 234.109C297.518 234.109 297.518 234.109 297.314 234.109C297.314 234.109 297.314 234.109 297.11 234.109C297.11 234.109 297.11 234.109 296.906 234.109L296.09 234.925L288.744 241.451C288.54 241.655 288.54 242.063 288.948 242.063L290.58 242.674C290.58 242.674 290.58 242.674 290.784 242.674L291.397 242.878L291.805 243.082H292.009L293.029 243.694L293.233 243.898L293.845 244.306L294.457 244.714L300.783 248.384C301.191 248.588 301.6 248.588 302.008 248.384L312.823 242.267C313.231 242.063 313.231 241.655 312.823 241.451L307.109 238.188L305.885 237.576L305.273 237.168L305.069 236.964L304.048 236.353C302.824 236.149 302.212 236.149 302.008 236.353ZM300.579 237.576H304.048L301.6 239.004H298.131L300.579 237.576ZM295.682 240.431H299.151L296.498 241.859H293.029L295.682 240.431ZM293.437 243.694C293.233 243.694 293.029 243.694 293.029 243.694L292.009 243.082H294.457L293.437 243.694ZM290.784 242.471L289.968 240.431L292.009 238.596L292.825 240.635L290.784 242.471ZM298.947 235.129L298.131 235.741L297.518 234.313L298.743 234.721C299.151 234.925 299.151 234.925 298.947 235.129ZM296.498 237.372L294.457 239.208L293.641 237.168L295.682 235.333L296.498 237.372ZM306.293 242.063L305.273 244.306C304.865 244.918 304.048 245.122 303.028 244.714L299.967 243.082C299.151 242.674 299.355 242.063 300.579 241.859L304.66 241.247C305.885 241.043 306.497 241.451 306.293 242.063Z" fill="#FBFBFB"/>
<path d="M199.774 21.0046L199.978 66.0728L160.799 88.7088L160.595 43.6407L199.774 21.0046Z" fill="#FB4F3B"/>
<path d="M196.305 18.9653L199.774 21.0046L160.595 43.6406L160.799 88.7087L157.126 86.4655V41.6014L196.305 18.9653Z" fill="#D3201A"/>
<path d="M184.061 62.606L170.798 61.3824L184.061 44.6603V41.6014L169.573 59.9549V64.2374L184.061 65.461V62.606Z" fill="#FBFBFB"/>
<path d="M174.267 59.3431C174.267 56.692 172.43 55.6724 170.185 56.896C167.941 58.1195 166.104 61.3824 166.104 64.0335C166.104 66.6845 167.941 67.7042 170.185 66.4806C172.43 65.257 174.267 61.9942 174.267 59.3431Z" fill="#FBFBFB"/>
<path d="M190.183 38.9503C190.183 36.2992 188.347 35.2796 186.102 36.5032C183.857 37.7267 182.021 40.9896 182.021 43.6406C182.021 46.2917 183.857 47.3113 186.102 46.0878C188.347 44.6603 190.183 41.6014 190.183 38.9503Z" fill="#FBFBFB"/>
<path d="M190.183 61.5863C190.183 58.9353 188.347 57.9156 186.102 59.1392C183.857 60.3628 182.021 63.6256 182.021 66.2767C182.021 68.9277 183.857 69.9474 186.102 68.7238C188.347 67.5003 190.183 64.2374 190.183 61.5863Z" fill="#FBFBFB"/>
<path d="M343.024 44.2524L346.289 42.2131C347.309 41.6014 348.533 41.8053 349.962 42.621L346.697 44.6603C345.268 43.8446 344.044 43.6406 343.024 44.2524Z" fill="#272F32"/>
<path d="M346.697 44.6603L349.962 42.621C350.37 42.8249 350.574 43.0288 350.982 43.2328L347.717 45.272C347.309 45.0681 347.105 44.8642 346.697 44.6603Z" fill="#272F32"/>
<path d="M347.717 45.2721L350.982 43.2328C351.594 43.6406 352.206 44.2524 352.614 44.8642L349.349 46.9035C348.941 46.2917 348.329 45.6799 347.717 45.2721Z" fill="#272F32"/>
<path d="M349.349 46.9035L352.614 44.8642C354.043 46.6995 355.063 49.1467 355.063 51.3899C355.063 51.5938 355.063 51.7978 355.063 52.0017L351.798 54.041C351.798 53.837 351.798 53.6331 351.798 53.4292C352.002 51.3899 350.982 48.9428 349.349 46.9035Z" fill="#191E20"/>
<path d="M351.798 54.2448L355.063 52.2056C355.063 52.8174 354.859 53.4291 354.451 53.837L351.186 55.8763C351.594 55.4684 351.798 54.8566 351.798 54.2448Z" fill="#191E20"/>
<path d="M351.39 55.8763L354.655 53.837C354.451 54.2449 354.043 54.4488 353.839 54.6527L350.574 56.692C350.778 56.692 351.186 56.2842 351.39 55.8763Z" fill="#191E20"/>
<path d="M346.697 44.6603C349.553 46.2917 351.798 50.3703 351.798 53.6331C351.798 56.896 349.553 58.1195 346.697 56.4881C343.84 54.8567 341.595 50.7781 341.595 47.5153C341.595 44.2524 343.84 43.0288 346.697 44.6603Z" fill="#21282A"/>
<path d="M330.576 54.2449L344.044 45.8839C344.86 45.476 345.88 45.476 346.901 46.0878L333.433 54.4488C332.413 53.8371 331.392 53.8371 330.576 54.2449Z" fill="#272F32"/>
<path d="M333.433 54.4488L346.901 46.0878C347.105 46.2917 347.309 46.4956 347.717 46.4956L334.249 54.8567C334.045 54.8567 333.841 54.6528 333.433 54.4488Z" fill="#272F32"/>
<path d="M334.249 55.0606L347.717 46.6995C348.125 47.1074 348.737 47.5152 349.145 48.127L335.677 56.4881C335.065 55.8763 334.657 55.2645 334.249 55.0606Z" fill="#272F32"/>
<path d="M335.473 56.2841L348.941 47.9231C350.166 49.3506 350.982 51.3899 350.982 53.0213C350.982 53.2252 350.982 53.4292 350.982 53.6331L337.514 61.9941C337.514 61.7902 337.514 61.5863 337.514 61.3824C337.514 59.7509 336.698 57.9156 335.473 56.2841Z" fill="#191E20"/>
<path d="M337.514 61.9942L350.982 53.6331C350.982 54.2449 350.778 54.6528 350.574 55.0606L337.106 63.4217C337.31 63.0138 337.514 62.606 337.514 61.9942Z" fill="#191E20"/>
<path d="M337.106 63.4217L350.574 55.0606C350.37 55.2645 350.166 55.6724 349.758 55.6724L336.29 64.0334C336.698 63.8295 336.902 63.6256 337.106 63.4217Z" fill="#191E20"/>
<path d="M333.433 54.4488C335.677 55.6724 337.514 58.9352 337.514 61.3824C337.514 64.0334 335.677 65.0531 333.433 63.6256C331.188 62.402 329.352 59.1392 329.352 56.692C329.352 54.2449 331.188 53.2253 333.433 54.4488Z" fill="#21282A"/>
<path d="M291.601 124.804L264.869 109.305V69.7434L291.601 85.2419V124.804Z" fill="#272F32"/>
<path d="M291.601 85.242L264.869 69.7434L316.904 39.5621L343.636 55.0606L291.601 85.242Z" fill="#414C50"/>
<path d="M343.636 55.0606V94.8266L291.601 124.804V85.242L343.636 55.0606Z" fill="#191E20"/>
<path d="M290.376 75.6574L284.459 72.1906V58.3235L290.376 61.7903V75.6574Z" fill="#272F32"/>
<path d="M290.376 61.7902L284.459 58.3235L321.393 36.911L327.311 40.3778L290.376 61.7902Z" fill="#354044"/>
<path d="M325.27 6.93355L317.516 2.44713C319.353 1.42749 321.189 0.611775 322.822 0.203918L330.576 4.69034C328.944 5.09819 327.311 5.91391 325.27 6.93355Z" fill="#414C50"/>
<path d="M330.78 4.69037L323.026 0.203949C325.679 -0.407836 327.923 2.06158e-05 329.964 1.01966L337.718 5.50608C335.677 4.48644 333.433 4.28251 330.78 4.69037Z" fill="#272F32"/>
<path d="M337.718 5.50607L329.964 1.01965C330.168 1.01965 330.168 1.22358 330.372 1.22358L338.126 5.71C337.922 5.71 337.718 5.50607 337.718 5.50607Z" fill="#272F32"/>
<path d="M312.823 48.7388L305.069 44.2524C301.804 42.417 299.967 38.5424 299.967 32.8324C299.967 28.5499 301.191 23.8596 303.028 19.3732L310.782 23.8596C308.742 28.346 307.721 33.0364 307.721 37.3188C307.721 43.0288 309.558 46.9035 312.823 48.7388Z" fill="#272F32"/>
<path d="M310.782 24.0635L303.028 19.5771C304.66 16.1103 306.701 12.8475 308.946 9.99249L316.7 14.4789C314.455 17.3339 312.415 20.5968 310.782 24.0635Z" fill="#333B3E"/>
<path d="M316.7 14.4789L308.946 9.99248C311.394 6.93356 314.455 4.2825 317.516 2.44714L325.27 6.93356C322.21 8.76892 319.353 11.42 316.7 14.4789Z" fill="#414C50"/>
<path d="M325.27 6.93361C335.065 1.22362 343.024 5.91396 343.024 17.13C343.024 28.3461 335.065 42.0092 325.27 47.7192C315.476 53.4292 307.517 48.7389 307.517 37.5228C307.721 26.3068 315.476 12.6436 325.27 6.93361Z" fill="#191E20"/>
<path d="M287.315 20.5967L278.337 15.2946C280.581 14.071 282.622 13.2553 284.663 12.8475L293.641 18.1496C291.601 18.5575 289.56 19.3732 287.315 20.5967Z" fill="#414C50"/>
<path d="M293.641 18.1496L284.663 12.8475C287.724 12.2357 290.376 12.4396 292.621 13.6632L301.6 18.9653C299.355 17.7418 296.702 17.5378 293.641 18.1496Z" fill="#272F32"/>
<path d="M301.6 18.9653L292.621 13.6632C292.825 13.6632 292.825 13.8671 293.029 13.8671L302.008 19.1693C301.804 19.1693 301.804 19.1693 301.6 18.9653Z" fill="#272F32"/>
<path d="M272.623 69.5395L263.645 64.2373C259.971 61.9941 257.727 57.5077 257.523 50.982C257.523 45.8838 258.951 40.5817 261.196 35.2795L270.174 40.5817C267.93 45.6799 266.501 51.1859 266.501 56.2841C266.705 62.8098 268.95 67.2963 272.623 69.5395Z" fill="#272F32"/>
<path d="M270.378 40.5817L261.4 35.2796C263.236 31.201 265.481 27.3264 268.338 24.0635L277.316 29.3657C274.46 32.8324 272.011 36.7071 270.378 40.5817Z" fill="#333B3E"/>
<path d="M277.316 29.3657L268.338 24.0635C271.399 20.3928 274.664 17.3339 278.337 15.2946L287.315 20.5967C283.642 22.84 280.173 25.8989 277.316 29.3657Z" fill="#414C50"/>
<path d="M287.315 20.5968C298.743 14.0711 307.925 19.3732 308.129 32.4246C308.129 45.476 298.947 61.3824 287.519 68.112C276.092 74.6377 266.91 69.3356 266.705 56.2842C266.705 43.2328 275.888 27.3264 287.315 20.5968Z" fill="#191E20"/>
<path d="M295.886 110.937L291.601 108.49V98.2933L295.886 100.74V110.937Z" fill="#272F32"/>
<path d="M295.886 100.74L291.601 98.2934L343.636 68.112L347.921 70.5591L295.886 100.74Z" fill="#414C50"/>
<path d="M347.921 70.5591V80.7555L295.886 110.937V100.741L347.921 70.5591Z" fill="#272F32"/>
<path d="M284.255 91.3598L287.315 89.5244V110.733L284.05 112.568L284.255 91.3598Z" fill="#171B1D"/>
<path d="M265.685 80.7555L268.95 78.9202L287.315 89.5244L284.255 91.3598L265.685 80.7555Z" fill="#1D2326"/>
<path d="M284.255 91.3598L284.05 112.568L265.685 101.964V80.7555L284.255 91.3598Z" fill="#2E3538"/>
<path d="M248.34 99.313L269.562 87.0773C270.991 86.2616 272.827 86.4655 275.072 87.6891L253.85 99.9248C251.605 98.7012 249.769 98.4973 248.34 99.313Z" fill="#191E20"/>
<path d="M253.85 99.9248L275.072 87.6891C275.48 87.893 276.092 88.3009 276.5 88.7087L255.278 100.944C254.666 100.537 254.258 100.129 253.85 99.9248Z" fill="#191E20"/>
<path d="M255.278 100.74L276.5 88.5048C277.317 89.3205 278.337 90.1362 278.949 91.1558L257.727 103.392C256.911 102.372 256.094 101.556 255.278 100.74Z" fill="#191E20"/>
<path d="M257.727 103.392L278.949 91.1559C281.194 94.0109 282.622 97.6816 282.622 100.944C282.622 101.352 282.622 101.76 282.622 101.964L261.4 114.2C261.4 113.792 261.4 113.588 261.4 113.18C261.4 109.917 259.972 106.247 257.727 103.392Z" fill="#191E20"/>
<path d="M261.4 114.2L282.622 101.964C282.418 102.984 282.214 103.799 281.806 104.411L260.584 116.647C260.992 116.035 261.196 115.219 261.4 114.2Z" fill="#191E20"/>
<path d="M260.584 116.647L281.806 104.411C281.398 105.023 280.99 105.431 280.377 105.839L259.155 118.074C259.767 117.666 260.176 117.259 260.584 116.647Z" fill="#191E20"/>
<path d="M253.85 99.9248C258.135 102.372 261.4 108.286 261.4 113.18C261.4 118.074 257.931 119.91 253.646 117.463C249.36 115.015 246.095 109.102 246.095 104.207C246.095 99.313 249.564 97.4777 253.85 99.9248Z" fill="#191E20"/>
<path d="M254.258 99.313L230.179 85.2419L242.422 89.3205L266.501 103.188L254.258 99.313Z" fill="#272F32"/>
<path d="M254.462 130.106L230.179 116.035V85.2419L254.258 99.313L254.462 130.106Z" fill="#354044"/>
<path d="M231.607 115.219V87.6891L252.829 100.129L253.033 127.455L231.607 115.219Z" fill="#191E20"/>
<path d="M234.464 113.588V92.5834L249.973 101.76V122.561L234.464 113.588Z" fill="#02D4CF"/>
<path d="M254.258 99.313L266.501 103.188V111.957L254.462 130.106L254.258 99.313Z" fill="#333B3E"/>
<path d="M327.311 40.3778L327.515 54.4488L290.376 75.6573V61.7902L307.925 36.0953L327.311 40.3778Z" fill="#191E20"/>
<path d="M345.676 77.0849C345.676 75.0456 344.248 74.2299 342.615 75.2495C340.983 76.2692 339.555 78.7163 339.555 80.5516C339.555 82.5909 340.983 83.4066 342.615 82.387C344.248 81.5713 345.676 79.1241 345.676 77.0849Z" fill="#191E20"/>
<path d="M323.23 189.449L326.699 187.41V188.43L323.23 190.265V189.449Z" fill="#0E1112"/>
<path d="M323.23 182.108L326.699 180.069V181.088L323.23 183.128V182.108Z" fill="#0E1112"/>
<path d="M323.026 162.735L326.495 160.695V174.359L323.026 176.398V162.735Z" fill="#0E1112"/>
<path d="M323.842 164.162L327.311 162.123V173.951L323.842 175.99V164.162Z" fill="#938D86"/>
<path d="M320.373 154.578L323.842 152.538L361.185 174.155L357.716 175.99L320.373 154.578Z" fill="#0E1112"/>
<path d="M320.373 154.578L323.842 152.538L332.821 157.637L329.352 159.676L320.373 154.578Z" fill="#0E1112"/>
<path d="M320.373 144.177L323.842 142.138V152.538L320.373 154.578V144.177Z" fill="#0E1112"/>
<path d="M320.373 144.177L323.842 142.138L332.821 157.636L329.352 159.676L320.373 144.177Z" fill="#0F1314"/>
<path d="M320.373 144.177L329.352 159.676L320.373 154.578V144.177Z" fill="#191E1F"/>
<path d="M323.026 176.398L326.495 174.359L368.327 198.626L364.858 200.665L323.026 176.398Z" fill="#0E1112"/>
<path d="M323.842 175.99L327.311 173.951L367.307 196.995L364.042 199.034L323.842 175.99Z" fill="#918A84"/>
<path d="M323.842 164.162L327.311 162.123L339.963 169.464L336.494 171.504L323.842 164.162Z" fill="#0E1112"/>
<path d="M336.494 171.504L339.963 169.464V181.292L336.494 183.331V171.504Z" fill="#0E1112"/>
<path d="M336.494 170.892L339.963 169.057V169.464L336.494 171.504V170.892Z" fill="#938D86"/>
<path d="M337.31 171.911L340.779 169.872V181.7L337.31 183.739V171.911Z" fill="#938D86"/>
<path d="M337.31 171.504V171.911V183.739L336.494 183.331V171.504V170.892L337.31 171.504Z" fill="#F7ECE1"/>
<path d="M336.494 170.892L339.963 169.057L340.779 169.464L337.31 171.504L336.494 170.892Z" fill="#918A84"/>
<path d="M337.31 171.504L340.779 169.464V169.872L337.31 171.912V171.504Z" fill="#938D86"/>
<path d="M323.23 190.265L326.699 188.43L367.715 212.085L364.45 214.125L323.23 190.265Z" fill="#0E1112"/>
<path d="M364.45 213.105L367.715 211.066V212.085L364.45 214.125V213.105Z" fill="#938D86"/>
<path d="M323.23 189.449L326.699 187.41L367.715 211.066L364.45 213.105L323.23 189.449Z" fill="#918A84"/>
<path d="M364.45 213.105V214.125L323.23 190.265V189.449L364.45 213.105Z" fill="#F7ECE1"/>
<path d="M323.23 183.128L326.699 181.088L367.919 204.948L364.45 206.987L323.23 183.128Z" fill="#0E1112"/>
<path d="M323.23 182.108L326.699 180.069L367.919 203.928L364.45 205.967L323.23 182.108Z" fill="#918A84"/>
<path d="M364.45 205.968L367.919 203.928V204.948L364.45 206.987V205.968Z" fill="#938D86"/>
<path d="M364.45 205.967V206.987L323.23 183.128V182.108L364.45 205.967Z" fill="#F7ECE1"/>
<path d="M337.31 171.911L340.779 169.872L353.839 177.418L350.37 179.457L337.31 171.911Z" fill="#0E1112"/>
<path d="M350.37 179.457L353.839 177.417L353.635 189.245L350.166 191.081L350.37 179.457Z" fill="#0E1112"/>
<path d="M350.37 178.845L353.839 176.806V177.418L350.37 179.457V178.845Z" fill="#938D86"/>
<path d="M351.186 179.865L354.655 177.825V189.653L351.186 191.693V179.865Z" fill="#938D86"/>
<path d="M351.186 179.457V179.865V191.692L350.166 191.081L350.37 179.457V178.845L351.186 179.457Z" fill="#F7ECE1"/>
<path d="M350.37 178.845L353.839 176.806L354.655 177.418L351.186 179.457L350.37 178.845Z" fill="#918A84"/>
<path d="M351.186 179.865L354.655 177.825L367.511 185.371L364.042 187.206L351.186 179.865Z" fill="#0E1112"/>
<path d="M351.186 179.457L354.655 177.417V177.825L351.186 179.865V179.457Z" fill="#938D86"/>
<path d="M364.042 187.206L367.511 185.371L367.307 196.995L364.042 199.034V187.206Z" fill="#0E1112"/>
<path d="M364.858 186.798L368.327 184.759V198.626L364.858 200.665V186.798Z" fill="#938D86"/>
<path d="M323.026 162.735L326.495 160.695L368.327 184.759L364.858 186.798L323.026 162.735Z" fill="#918A84"/>
<path d="M360.165 177.418L368.531 182.312L368.327 219.631L320.373 191.896L320.577 154.578L357.92 176.194L360.165 177.418ZM364.858 200.665V186.798L323.026 162.735V176.602L364.858 200.665ZM364.45 206.987V205.968L323.23 182.108V183.128L364.45 206.987ZM364.45 214.125V213.105L323.23 189.245V190.265L364.45 214.125Z" fill="#191E1F"/>
<path d="M336.494 171.504V183.331L323.842 175.99V164.162L336.494 171.504Z" fill="#191E1F"/>
<path d="M320.373 143.566L323.842 141.526L324.658 142.138L321.189 143.973L320.373 143.566Z" fill="#918A84"/>
<path d="M330.168 149.275L333.637 147.236L343.024 163.55L339.555 165.59L330.168 149.275Z" fill="#9E9790"/>
<path d="M330.168 149.275L339.555 165.59L329.352 159.676L320.373 144.177V143.565L321.189 143.973L330.168 149.275Z" fill="#F7ECE1"/>
<path d="M321.189 143.973L324.658 142.138L333.637 147.236L330.168 149.275L321.189 143.973Z" fill="#918A84"/>
<path d="M364.042 187.206V199.034L351.186 191.692V179.865L364.042 187.206Z" fill="#191E1F"/>
<path d="M323.026 162.735L364.858 186.798V200.665L323.026 176.602V162.735ZM364.042 199.034V187.206L351.186 179.865V179.457L350.37 179.049V179.457L337.514 171.912V171.504L336.698 171.096V171.504L324.046 164.162V175.99L364.042 199.034Z" fill="#F7ECE1"/>
<path d="M350.37 179.457L350.166 191.081L337.31 183.739V171.911L350.37 179.457Z" fill="#191E1F"/>
<path d="M328.127 135.816L320.373 143.158L319.353 132.146L328.127 135.816Z" fill="#191E1F"/>
<path d="M328.127 135.816L331.596 133.981L323.842 141.118L320.373 143.158L328.127 135.816Z" fill="#0C0F10"/>
<path d="M319.353 132.145L322.618 130.106L331.596 133.981L328.127 135.816L319.353 132.145Z" fill="#0E1011"/>
<path d="M340.371 154.985L343.84 153.15L353.227 169.464L349.757 171.504L340.371 154.985Z" fill="#0F1314"/>
<path d="M330.168 149.275L333.637 147.236L343.84 153.15L340.371 154.985L330.168 149.275Z" fill="#0E1112"/>
<path d="M340.371 154.985L349.758 171.504L339.555 165.59L330.168 149.275L340.371 154.985Z" fill="#191E1F"/>
<path d="M349.758 171.504L353.227 169.464L361.185 174.155L357.716 175.99L349.758 171.504Z" fill="#918A84"/>
<path d="M328.127 135.816L331.596 133.981L341.799 138.263L338.33 140.099L328.127 135.816Z" fill="#8C8680"/>
<path d="M338.33 140.099L341.799 138.263L333.637 145.809L330.168 147.848L338.33 140.099Z" fill="#7F7973"/>
<path d="M338.33 140.099L330.168 147.848L321.189 143.973L320.577 143.565L320.373 143.158L328.127 135.816L338.33 140.099Z" fill="#F7ECE1"/>
<path d="M357.716 175.99L361.185 174.155L363.429 175.378L360.165 177.418L357.716 175.99Z" fill="#918A84"/>
<path d="M357.716 175.99L361.185 174.155L363.429 175.378L360.165 177.418L357.716 175.99Z" fill="#0E1112"/>
<path d="M349.758 171.504L357.716 175.99L360.165 177.418L349.758 171.504Z" fill="#7D7872"/>
<path d="M340.371 154.985L343.84 153.15L354.043 159.064L350.574 160.899L340.371 154.985Z" fill="#918A84"/>
<path d="M350.574 160.899L360.165 177.418L349.757 171.504L340.371 154.985L350.574 160.899Z" fill="#F7ECE1"/>
<path d="M350.574 160.899L354.043 159.064L363.429 175.378L360.165 177.417L350.574 160.899Z" fill="#9E9790"/>
<path d="M360.165 177.418L363.43 175.378L372 180.273L368.531 182.312L360.165 177.418Z" fill="#0E1112"/>
<path d="M360.777 166.813L368.531 180.273V182.312L360.165 177.418L350.574 160.899L360.777 166.813Z" fill="#191E1F"/>
<path d="M368.531 182.312L372 180.273L371.796 217.591L368.327 219.631L368.531 182.312Z" fill="#0E1112"/>
<path d="M368.531 180.273L372 178.233V180.273L368.531 182.312V180.273Z" fill="#0E1112"/>
<path d="M360.777 166.813L364.246 164.774L372 178.233L368.531 180.273L360.777 166.813Z" fill="#0F1314"/>
<path d="M350.574 160.899L354.043 159.064L364.246 164.774L360.777 166.813L350.574 160.899Z" fill="#0E1112"/>
<path d="M348.329 144.381L351.798 142.342L343.636 150.091L340.167 152.13L348.329 144.381Z" fill="#0C0F10"/>
<path d="M348.329 144.381L340.167 152.13L330.168 147.848L338.33 140.099L348.329 144.381Z" fill="#191E1F"/>
<path d="M338.33 140.099L341.799 138.263L351.798 142.342L348.329 144.381L338.33 140.099Z" fill="#0E1011"/>
<path d="M368.531 171.3L372 169.26V178.233L368.531 180.272V171.3Z" fill="#938D86"/>
<path d="M360.777 166.813L364.246 164.774L372 169.26L368.531 171.3L360.777 166.813Z" fill="#918A84"/>
<path d="M368.531 171.3V180.272L360.777 166.813L368.531 171.3Z" fill="#F7ECE1"/>
<path d="M358.532 148.664L362.001 146.624L353.839 154.374L350.37 156.209L358.532 148.664Z" fill="#7F7973"/>
<path d="M358.532 148.664L350.37 156.209L340.167 152.13L348.329 144.381L358.532 148.664Z" fill="#F7ECE1"/>
<path d="M348.329 144.381L351.798 142.342L362.001 146.624L358.532 148.664L348.329 144.381Z" fill="#8C8680"/>
<path d="M367.103 154.374L370.572 152.334L364.042 158.656L360.573 160.491L367.103 154.374Z" fill="#0C0F10"/>
<path d="M367.103 154.374L368.123 163.754L360.573 160.492L367.103 154.374Z" fill="#F7ECE1"/>
<path d="M367.103 154.374L370.572 152.334L371.592 161.715L368.123 163.754L367.103 154.374Z" fill="#97908A"/>
<path d="M366.899 152.334L367.103 154.374L360.573 160.492L350.37 156.209L358.532 148.664L366.899 152.334Z" fill="#191E1F"/>
<path d="M366.898 152.334L370.367 150.295L370.572 152.334L367.103 154.374L366.898 152.334Z" fill="#0F1213"/>
<path d="M358.532 148.664L362.001 146.624L370.367 150.295L366.898 152.334L358.532 148.664Z" fill="#0E1011"/>
</g>
<defs>
<clipPath id="clip0_3_611">
<rect width="372" height="488" fill="white"/>
</clipPath>
</defs>
</svg>
