<svg width="1440" height="187" viewBox="0 0 1440 187" fill="none" xmlns="http://www.w3.org/2000/svg">
<path opacity="0.5" d="M1925 187V160.255C1899.91 124.544 1871.65 90.8118 1832.96 65.1154C1733.14 -1.23177 1606.55 -0.775009 1491.56 32.0772C1431.44 49.2476 1375.59 76.1789 1318.5 99.4055C1239.52 131.547 1154.97 177.222 1066 183.431C996.014 188.252 929.159 167.495 875.698 130.042C814.382 87.0902 755.42 25.1582 675.692 6.54991C597.643 -11.7032 518.686 17.8672 445.771 47.6236C372.855 77.38 300.712 113.599 220.115 120.45C104.836 130.346 1.48486 81.7445 -105.862 54.7455C-164.148 40.0957 -219.732 44.3079 -273.945 67.433C-317.235 85.8552 -366.585 112.99 -391 150.731V187L1925 187Z" fill="white" fill-opacity="0.5"/>
</svg>
