<svg width="1440" height="205" viewBox="0 0 1440 205" fill="none" xmlns="http://www.w3.org/2000/svg">
<path opacity="0.5" d="M1983 226V193.59C1952.19 150.314 1917.49 109.437 1869.97 78.2975C1747.4 -2.1035 1591.95 -1.55 1450.75 38.261C1376.92 59.0685 1308.33 91.7045 1238.23 119.851C1141.25 158.801 1037.42 214.151 928.161 221.675C842.224 227.517 760.127 202.364 694.479 156.977C619.184 104.927 546.78 29.8765 448.875 7.32651C353.033 -14.793 256.076 21.041 166.537 57.1005C76.9987 93.16 -11.5919 137.05 -110.563 145.353C-252.123 157.346 -379.037 98.449 -510.856 65.731C-582.43 47.978 -650.686 53.0825 -717.259 81.106C-770.418 103.431 -831.019 136.313 -861 182.048V226L1983 226Z" fill="url(#paint0_linear_13_496)" fill-opacity="0.8"/>
<defs>
<linearGradient id="paint0_linear_13_496" x1="561" y1="226" x2="561" y2="0.52211" gradientUnits="userSpaceOnUse">
<stop stop-color="#8E16F5"/>
<stop offset="0.973958" stop-color="#154FEB"/>
<stop offset="1" stop-color="white" stop-opacity="0"/>
</linearGradient>
</defs>
</svg>
